<svg width="12" height="17" viewBox="0 0 12 17" fill="none" xmlns="http://www.w3.org/2000/svg">
<path d="M7.8 10.1696C7.3 10.6756 6.7 10.9286 6 10.9286C5.3 10.9286 4.6875 10.6756 4.1625 10.1696C3.6625 9.66369 3.4125 9.0439 3.4125 8.31027V2.6183C3.4125 1.88467 3.6625 1.26488 4.1625 0.758929C4.6875 0.252976 5.3 0 6 0C6.7 0 7.3 0.252976 7.8 0.758929C8.325 1.26488 8.5875 1.88467 8.5875 2.6183V8.31027C8.5875 9.0439 8.325 9.66369 7.8 10.1696ZM10.5375 8.08259H12C12 9.54985 11.5 10.84 10.5 11.9531C9.5 13.0409 8.2875 13.686 6.8625 13.8884V17H5.1375V13.8884C3.7125 13.686 2.5 13.0409 1.5 11.9531C0.5 10.84 0 9.54985 0 8.08259H1.4625C1.4625 9.34747 1.9125 10.3973 2.8125 11.2321C3.7125 12.067 4.775 12.4844 6 12.4844C7.225 12.4844 8.2875 12.067 9.1875 11.2321C10.0875 10.3973 10.5375 9.34747 10.5375 8.08259Z" fill="#262F56"/>
</svg>
