<svg width="20" height="13" viewBox="0 0 20 13" fill="none" xmlns="http://www.w3.org/2000/svg">
<path d="M12.2966 0C12.7432 0 13.11 0.15949 13.3971 0.478469C13.7161 0.76555 13.8756 1.13238 13.8756 1.57895V10.5742C13.8756 11.0207 13.7161 11.4195 13.3971 11.7703C13.11 12.0893 12.7432 12.2488 12.2966 12.2488H1.72249C1.27592 12.2488 0.877193 12.0893 0.526316 11.7703C0.175439 11.4195 0 11.0207 0 10.5742V1.57895C0 1.13238 0.15949 0.76555 0.478469 0.478469C0.829346 0.15949 1.24402 0 1.72249 0H12.2966ZM15.311 4.06699L20 1.5311V10.7177L15.311 8.18182V4.06699Z" fill="#262F56"/>
</svg>
